<svg xmlns="http://www.w3.org/2000/svg" viewBox="0 0 377.39 72.397"><defs><style>.cls-1{fill:none}.cls-2{fill:#e60012}</style></defs><title>アセット 1</title><g id="レイヤー_2" data-name="レイヤー 2"><g id="レイヤー_1-2" data-name="レイヤー 1"><path class="cls-1" d="M36.185 2.273h.006c.226-.125.456-.243.689-.356l.071-.033c.192-.094.386-.187.582-.273a15.7 15.7 0 0 0-2.692 0c.2.087.39.18.582.273l.073.033c.236.114.464.231.689.356zM9.69 40.314c.179-.249.362-.5.543-.763l.243-.351c.122-.177.244-.358.367-.538.155-.23.31-.462.465-.7.005-.009.013-.018.018-.025a39.676 39.676 0 0 0 5.388-11.716c.024-.091.045-.183.068-.274.1-.393.19-.794.275-1.2.066-.323.131-.649.189-.979.031-.173.057-.348.085-.522.063-.407.122-.814.171-1.23.013-.1.021-.2.032-.3.05-.48.093-.961.122-1.452 0-.043 0-.086.006-.129a30.85 30.85 0 0 0 .046-1.649c0-.171-.007-.341-.011-.51 0-.075 0-.15-.006-.227 0-.108-.014-.218-.021-.325-.008-.133-.016-.266-.027-.4s-.03-.284-.045-.425c-.012-.1-.021-.192-.033-.286a13.624 13.624 0 0 0-.073-.487c-.011-.071-.021-.143-.034-.215a23.215 23.215 0 0 0-.1-.526l-.034-.165a18.833 18.833 0 0 0-.132-.559l-.032-.122c-.051-.194-.1-.389-.163-.581-.008-.031-.018-.06-.027-.091-.062-.2-.125-.4-.195-.6l-.022-.063a14.912 14.912 0 0 0-.228-.61l-.014-.038a17.977 17.977 0 0 0-.261-.62l-.006-.012a16.918 16.918 0 0 0-1.617-2.851c-.052-.073-.1-.148-.154-.222-.071-.1-.145-.19-.216-.284s-.131-.175-.2-.26c-.068.085-.133.173-.2.257s-.146.189-.216.286c-.052.073-.1.146-.152.22a17.044 17.044 0 0 0-1.892 3.5v.008c-.083.209-.161.421-.236.636l-.013.034c-.072.206-.139.412-.2.621l-.021.066a19.199 19.199 0 0 0-.195.7q-.072.289-.135.576l-.03.147a8.327 8.327 0 0 0-.1.542c-.013.066-.023.135-.033.2-.027.166-.054.331-.075.5-.013.093-.021.184-.033.276-.015.145-.032.288-.046.434s-.019.262-.027.393c-.007.11-.016.22-.021.329-.012.245-.017.489-.017.735v.233c0 .276 0 .554-.013.83 0 .1-.011.2-.016.306-.01.25-.019.5-.037.749-.007.118-.019.237-.028.357-.017.229-.034.461-.057.693l-.042.373c-.025.225-.048.449-.078.672-.017.129-.039.257-.057.385-.031.22-.062.438-.1.658-.021.133-.046.265-.07.4-.038.213-.075.428-.117.64-.027.138-.058.273-.088.41-.043.209-.087.418-.137.627-.033.139-.068.278-.1.417-.051.2-.1.411-.155.617-.038.141-.081.285-.12.428-.056.2-.113.4-.174.6-.043.148-.092.294-.138.441a25.354 25.354 0 0 1-.346 1.041c-.068.191-.134.384-.2.574l-.178.465a29.87 29.87 0 0 1-.22.564c-.063.157-.13.315-.2.474-.078.184-.155.37-.236.554-.071.161-.144.322-.218.483a29.621 29.621 0 0 1-.487 1.033c-.087.181-.176.362-.269.544-.081.163-.166.325-.251.487-.062.117-.12.234-.182.35a56.968 56.968 0 0 0 3.53 5.528c.019-.03.039-.058.059-.086zm5.3-30.728a.225.225 0 1 1-.225.225.225.225 0 0 1 .226-.225zm30.049-7.313h.013c.223-.123.451-.24.682-.355l.088-.041c.189-.092.378-.183.57-.268a15.711 15.711 0 0 0-2.693 0c.195.087.387.179.579.271l.076.035c.231.116.46.233.685.358zM20.245 3.378c.321.226.636.463.942.71.075.061.151.12.226.183q.49.407.951.848c.075.07.148.144.222.218.1.1.21.2.311.3l.014-.016.014.016c.107-.11.219-.216.329-.325l.192-.187c.312-.3.634-.586.966-.86.071-.06.144-.115.216-.175q.461-.369.942-.711c.052-.035.1-.074.154-.111l.06-.042a15.932 15.932 0 0 0-.811-.365l-.216-.084c-.261-.1-.524-.2-.791-.293l-.21-.072c-.278-.09-.561-.172-.845-.248-.287.077-.574.159-.854.251l-.177.061c-.278.095-.554.2-.826.306l-.2.079c-.275.114-.547.237-.815.366l.061.045c.048.036.1.071.145.106zm8.708-.105c.048.034.094.069.143.1q.489.347.956.724c.069.055.14.109.208.166q.5.416.97.864l.192.189c.109.107.222.212.328.322l.014-.017.016.017c.106-.11.219-.215.328-.322.065-.064.128-.13.195-.191q.468-.448.965-.86c.072-.061.146-.117.219-.177.3-.243.614-.479.934-.7.055-.04.107-.079.164-.119l.054-.039q-.4-.192-.81-.365l-.216-.084c-.263-.1-.529-.2-.8-.294l-.2-.071c-.28-.09-.563-.172-.849-.248-.285.076-.57.158-.85.25l-.189.066c-.277.093-.549.194-.82.3l-.2.076c-.277.116-.548.239-.818.368.025.014.045.031.066.045zm-7.778 44.898l.12-.141.357-.42.185-.221.275-.326q.227-.271.439-.529c6.509-7.9 12.863-16.568 12.863-28.049 0-.246-.006-.49-.017-.734 0-.109-.014-.22-.021-.327-.009-.133-.016-.266-.027-.4s-.03-.284-.045-.425c-.011-.1-.02-.192-.033-.286a15.296 15.296 0 0 0-.072-.485c-.013-.073-.023-.144-.035-.218a23.13 23.13 0 0 0-.1-.525l-.034-.165q-.061-.28-.131-.557l-.033-.126c-.049-.192-.1-.387-.161-.578l-.03-.094c-.061-.2-.124-.4-.194-.594l-.022-.067c-.072-.2-.147-.405-.226-.606l-.017-.041q-.123-.313-.26-.618l-.005-.015a17 17 0 0 0-1.639-2.879c-.044-.061-.085-.124-.13-.186a25.462 25.462 0 0 0-.247-.327c-.057-.073-.113-.149-.17-.221-.066.083-.131.17-.2.254s-.147.191-.217.289-.117.168-.175.251A16.806 16.806 0 0 0 29.875 11c-.1.2-.195.4-.287.608-.006.013-.012.024-.017.038q-.132.3-.253.6l-.023.058c-.078.2-.151.4-.222.6-.01.025-.018.051-.027.076-.068.2-.131.39-.191.586l-.031.1a15.486 15.486 0 0 0-.36 1.424c-.036.175-.069.348-.1.523-.013.073-.022.146-.035.221-.025.161-.051.32-.072.48-.013.1-.021.2-.032.293-.016.14-.033.279-.045.419s-.018.267-.027.4c-.007.107-.017.215-.021.324-.011.244-.017.488-.017.734v.225c0 .3 0 .595-.014.888 0 .056-.007.109-.009.163-.013.314-.027.626-.048.935 0 .031-.006.063-.007.092-.024.332-.051.663-.084.99v.02c-1.054 10.274-6.886 18.231-12.878 25.518a207.417 207.417 0 0 0 3.416 3.945q1.2-1.351 2.21-2.527l.046-.053zm27.939-1.637a79.21 79.21 0 0 0 8.32-11.661l.093-.162.075-.142a32.964 32.964 0 0 0 4.375-16.084c0-.239-.006-.477-.016-.714a16.946 16.946 0 0 0-8.547-13.988l-.071-.041c-.158-.089-.32-.175-.483-.26l-.147-.076a15.12 15.12 0 0 0-.426-.206c-.074-.036-.145-.071-.221-.1-.123-.057-.25-.11-.376-.164-.095-.04-.188-.082-.283-.119-.111-.045-.223-.087-.336-.13s-.224-.086-.338-.127-.2-.067-.3-.1c-.126-.042-.252-.085-.38-.124-.095-.03-.191-.057-.287-.085l-.288-.081c-.287.078-.574.16-.855.253l-.186.063c-.278.095-.553.2-.824.3l-.193.076c-.277.115-.55.239-.819.368a18.429 18.429 0 0 1 7.9 12.732c.006.036.013.073.017.111.045.338.078.677.1 1.019.005.065.014.129.019.2.025.4.039.8.039 1.2 0 10.121-4.648 18.058-10.118 25.164a155.867 155.867 0 0 1-3.934 4.871c-.209.245-.419.494-.637.748l-.225.262c-.185.216-.372.434-.563.653-.089.1-.181.208-.27.312l-.545.625-.312.355c-.175.2-.349.4-.527.6l-.343.387c-.171.192-.342.386-.516.579-.121.138-.244.274-.366.41-.168.189-.336.377-.506.564l-.381.424-.5.557-.384.424c-.169.186-.338.371-.506.558l-.376.411c-.173.191-.347.38-.521.569l-.35.383c-.183.2-.362.4-.542.591l-.325.353c-.19.207-.378.411-.568.615l-.274.3c-.2.221-.4.437-.6.651l-.233.253-.644.69-.159.171-.668.715-.137.147-.236.251c1.126 1.2 2.253 2.386 3.362 3.549 2.951-3.112 12.14-12.813 17.342-19.1zM39.26 6.5c-.1-.1-.2-.2-.3-.294a16.443 16.443 0 0 0-.737-.657c-.069-.058-.136-.121-.206-.18q-.485-.394-1-.751c-.09-.062-.184-.12-.274-.181-.182-.123-.369-.237-.557-.354-.2.122-.394.243-.585.372-.079.053-.161.1-.239.156q-.517.362-1.005.76c-.064.053-.124.11-.188.163-.257.217-.511.441-.756.674-.1.093-.195.19-.293.286s-.212.224-.319.335l.04.051c.124.154.243.311.362.466.054.072.112.142.164.215a18.514 18.514 0 0 1 1.443 2.29c.138.26.269.523.394.789l.04.085a20.475 20.475 0 0 1 .378.873 17.224 17.224 0 0 1 .326.868c.069.2.134.4.2.6.014.048.033.1.047.143.02-.066.044-.131.065-.2.052-.171.109-.34.166-.51.033-.095.065-.19.1-.282.073-.2.151-.4.232-.6.025-.062.049-.123.075-.184.1-.237.2-.472.311-.7l.038-.087a18.631 18.631 0 0 1 1.831-3.077l.185-.237c.11-.147.222-.294.338-.437l.043-.057c-.108-.118-.211-.232-.319-.338z"/><path class="cls-1" d="M25.268 53.571l.77-.855c.135-.15.272-.3.405-.452.3-.331.582-.653.863-.97l.277-.313c.281-.316.549-.621.815-.925l.27-.308.678-.783c.109-.126.223-.256.328-.38.189-.219.364-.427.544-.636l.37-.435c.287-.339.56-.667.819-.98q.915-1.11 1.822-2.243c5.621-7.052 10.679-14.843 11.022-24.738.011-.353.018-.709.018-1.067 0-.246-.007-.49-.017-.734-.006-.11-.014-.22-.022-.329-.008-.132-.016-.264-.027-.394s-.029-.285-.045-.426c-.011-.1-.021-.192-.034-.287a13.124 13.124 0 0 0-.072-.484c-.011-.073-.021-.144-.034-.218a23.13 23.13 0 0 0-.1-.525l-.034-.165a15.134 15.134 0 0 0-.164-.681c-.051-.2-.1-.389-.163-.581-.008-.031-.018-.06-.027-.091-.062-.2-.127-.4-.195-.6-.007-.02-.016-.041-.022-.062-.072-.205-.147-.41-.228-.612 0-.013-.01-.023-.014-.035a20.026 20.026 0 0 0-.261-.624v-.006a16.86 16.86 0 0 0-1.668-2.926c-.034-.046-.065-.095-.1-.141-.087-.12-.179-.239-.27-.357l-.151-.2c-.075.094-.147.191-.22.287s-.128.166-.191.253-.133.189-.2.285a16.983 16.983 0 0 0-1.578 2.794v.006c-.092.209-.179.416-.263.627 0 .012-.008.022-.013.031a18.474 18.474 0 0 0-.45 1.279l-.025.082q-.087.291-.164.589l-.029.113a15.55 15.55 0 0 0-.266 1.256c-.013.07-.022.142-.034.21-.027.163-.052.327-.074.49l-.032.283c-.016.143-.033.285-.045.429s-.019.261-.027.392c-.007.11-.017.221-.021.331-.011.244-.017.488-.017.734v.225c-.082 11.879-6.568 20.747-13.214 28.812-.149.182-.3.365-.462.556l-.186.219c-.1.117-.193.233-.295.352s-.185.219-.28.329l-.222.262c-.112.13-.228.264-.342.4-.061.069-.122.14-.182.212l-.406.467c-.043.052-.089.1-.134.154l-.47.54c-.027.032-.055.063-.084.1l-.534.607-.037.042c-.2.22-.393.444-.593.671a445.805 445.805 0 0 0 3.387 3.736c.407-.443.8-.875 1.189-1.3l.449-.5c.235-.263.477-.53.712-.792z"/><path class="cls-1" d="M30.045 58.032l.1-.108.723-.786.2-.214.65-.71c.087-.095.174-.188.261-.285a183.485 183.485 0 0 0 .915-1.001l.518-.572.379-.417.49-.542.391-.436.463-.517.414-.464.43-.482.422-.476.429-.487c.142-.161.269-.3.4-.455l.451-.517.352-.4.475-.551.3-.352.521-.615.222-.261c.241-.287.477-.568.7-.845 6.508-7.9 12.863-16.565 12.863-28.049q0-.554-.037-1.1c-.016-.229-.043-.455-.068-.683-.014-.133-.022-.267-.039-.4a17.01 17.01 0 0 0-.15-.908c-.01-.05-.017-.1-.027-.151q-.1-.517-.237-1.025v-.017a17.151 17.151 0 0 0-2.142-4.846l-.014-.046c-.175-.27-.359-.532-.548-.793-.025-.035-.049-.071-.076-.106a15.052 15.052 0 0 0-.545-.692c-.047-.057-.092-.115-.14-.172-.171-.2-.349-.4-.53-.592-.072-.078-.141-.155-.214-.23a18.379 18.379 0 0 0-.507-.5c-.1-.094-.195-.187-.294-.277a15.88 15.88 0 0 0-.483-.418c-.123-.1-.244-.206-.37-.3-.152-.122-.31-.237-.466-.355s-.285-.211-.432-.312-.309-.206-.466-.308c-.091-.06-.184-.116-.276-.173-.173.107-.346.215-.516.328-.11.073-.223.143-.331.219q-.5.35-.976.736c-.084.067-.161.141-.243.209-.239.2-.473.409-.7.624-.109.1-.216.212-.322.319s-.2.209-.3.313c.02.022.037.047.057.07.045.057.089.116.136.174.121.154.241.31.358.469.06.079.115.16.171.239.1.139.2.276.291.418.068.1.133.2.2.306a13.55 13.55 0 0 1 .446.731q.092.157.181.314c.078.142.152.282.227.424l.139.271a17.147 17.147 0 0 1 .336.709q.115.253.221.511c.03.071.057.142.086.212.071.18.14.36.206.541.024.066.046.132.069.2a14.117 14.117 0 0 1 .246.76 14.972 14.972 0 0 1 .216.77c.048.189.095.379.137.571.017.073.031.149.046.223.039.184.077.367.109.554.016.088.028.176.042.263.028.176.057.348.079.522.016.109.025.218.038.328.018.155.037.311.051.466s.021.3.03.444c.008.118.019.237.024.358.011.27.019.54.019.813 0 .374-.007.747-.019 1.114q-.038 1.107-.148 2.18-.055.536-.127 1.063C44.186 32.7 38.455 40.421 32.6 47.522q-.4.483-.842 1.006c-.052.063-.11.129-.163.191l-.763.894c-.069.082-.144.167-.215.249a114.525 114.525 0 0 1-1.044 1.2l-.839.955-.242.272c-.307.347-.619.7-.942 1.06l-.2.218-1.077 1.2-.13.143q-.606.672-1.246 1.373l-.01.012-.931 1.02a548.89 548.89 0 0 0 3.373 3.628c.864-.917 1.771-1.894 2.716-2.911zm7.736-54.778q.356.245.7.508c.037.027.072.057.109.085.192.147.381.3.568.455.068.057.135.115.2.174.154.133.308.269.458.408.069.061.138.127.206.19.163.154.322.313.479.471.032.033.066.063.1.1l.014-.017.014.017c.106-.107.216-.212.324-.316l.2-.2q.466-.444.959-.854c.072-.061.146-.117.222-.177.305-.246.617-.483.936-.708.054-.038.1-.077.157-.114.021-.013.04-.028.059-.042a16.747 16.747 0 0 0-.819-.368c-.062-.025-.126-.051-.189-.074q-.407-.164-.825-.306l-.187-.063a14.642 14.642 0 0 0-.853-.251c-.284.076-.566.158-.846.248l-.2.071c-.273.092-.541.191-.807.3-.068.028-.136.054-.2.081-.275.114-.546.238-.816.366.013-.002.024.008.037.016zM5.2 33.2l.187-.38c.069-.143.14-.284.206-.425.092-.192.178-.385.265-.576l.172-.376c.1-.24.206-.48.307-.721.031-.077.066-.155.1-.232q.2-.488.381-.975c.12-.322.234-.642.345-.964l.066-.206c.084-.253.168-.506.244-.758.028-.09.054-.177.079-.268.069-.231.139-.466.2-.7.027-.1.051-.2.078-.295.059-.224.116-.446.169-.671.025-.1.049-.209.074-.312q.074-.328.142-.655l.065-.328a26.829 26.829 0 0 0 .175-.979c.036-.211.066-.423.1-.634l.048-.345c.027-.209.049-.42.072-.631.013-.115.027-.234.038-.35.02-.212.037-.426.052-.639.009-.113.019-.226.025-.341.014-.228.024-.456.034-.685 0-.1.01-.2.014-.295.01-.327.015-.653.015-.981v-.01A16.881 16.881 0 0 0 5.2 8.013a16.9 16.9 0 0 0-3.65 10.473A32.236 32.236 0 0 0 5.2 33.2zm9.069 12.639c.025-.031.051-.062.078-.1q.28-.341.558-.686l.017-.022c5.843-7.23 11.238-15.2 11.617-25.4v-.079q.019-.53.018-1.066c0-.246-.006-.49-.017-.734 0-.109-.014-.217-.02-.324-.009-.134-.017-.268-.028-.4s-.028-.279-.045-.419c-.01-.1-.02-.2-.032-.293-.021-.159-.047-.317-.072-.476l-.035-.228a22.367 22.367 0 0 0-.1-.516c-.011-.06-.024-.118-.037-.178a16.53 16.53 0 0 0-.321-1.248c-.011-.037-.023-.073-.033-.11a14.988 14.988 0 0 0-.22-.665c-.069-.2-.141-.392-.218-.587-.008-.023-.018-.045-.027-.067q-.119-.3-.249-.592a.453.453 0 0 1-.022-.05c-.09-.2-.184-.4-.281-.6l-.01-.018a17.036 17.036 0 0 0-1.319-2.213 9.903 9.903 0 0 1-.147-.21c-.079-.108-.163-.216-.246-.323-.057-.075-.113-.15-.171-.224-.085.107-.168.218-.25.326-.051.068-.1.136-.155.205-.092.126-.178.254-.267.383a17.018 17.018 0 0 0-1.2 2.032 20.744 20.744 0 0 0-.298.629.581.581 0 0 1-.028.061 17.732 17.732 0 0 0-.493 1.243l-.03.086q-.1.289-.189.581l-.032.105c-.057.189-.109.378-.16.568l-.034.134a20.75 20.75 0 0 0-.13.548l-.035.173c-.035.174-.069.348-.1.52l-.036.224c-.025.159-.051.319-.072.48-.013.1-.023.191-.033.288-.017.141-.032.282-.045.424s-.019.264-.028.4c-.006.109-.016.217-.02.327-.011.243-.017.489-.017.734v.225c-.062 9.162-3.959 16.316-7.725 21.7-.042.063-.085.122-.127.183l-.162.23c-.216.3-.433.6-.645.9a124.887 124.887 0 0 0 3.46 4.389z"/><path class="cls-1" d="M57.968 46.534c6.507-7.9 12.863-16.566 12.863-28.049A16.952 16.952 0 0 0 53.9 1.553c-.44 0-.891.02-1.345.058l.016.008c.117.052.233.108.348.163.095.043.189.087.281.132.163.08.324.164.483.247.037.02.073.04.109.058a18.465 18.465 0 0 1 9.619 14.2l.016.135c.017.173.034.343.048.516.009.109.014.221.021.332s.016.24.02.362c.01.24.016.482.016.725 0 11.992-6.53 20.921-13.219 29.037-.168.205-.343.413-.519.625l-.084.1-.456.542c-.051.059-.1.119-.154.18l-.4.469-.228.266-.345.4c-.087.1-.177.2-.266.3l-.325.376c-.1.112-.2.228-.3.343l-.3.337q-.18.2-.36.408l-.246.277c-.134.153-.27.306-.405.457-.071.08-.142.159-.212.24l-.439.491-.184.205q-.235.265-.475.528l-.152.171-.5.555-.133.147-.525.579-.106.117-.545.6-.09.1q-.286.316-.574.629a96.138 96.138 0 0 1-.642.695l-.041.045c-.2.213-.392.427-.586.637l-.046.051q-.3.322-.592.64l-.01.012q-.3.331-.606.652l-.007.009c-.2.215-.4.425-.59.636l-.03.032-.566.607-.011.013a694.628 694.628 0 0 1-5.427 5.749c1.3 1.351 2.475 2.566 3.353 3.457C40.335 66 52.086 53.642 57.968 46.534zM9.631 13.205c.018-.063.042-.126.062-.19.059-.192.123-.384.189-.575l.1-.288c.086-.238.179-.475.277-.709.02-.047.037-.093.056-.14a18.156 18.156 0 0 1 .845-1.73c.02-.037.041-.073.063-.11q.2-.352.411-.7l.12-.19q.193-.3.4-.595c.051-.071.1-.144.151-.216q.2-.284.418-.561c.051-.066.1-.136.154-.2s.094-.115.141-.175a16.908 16.908 0 0 0-3.39-2.743 16.92 16.92 0 0 0-3.392 2.735 18.694 18.694 0 0 1 3.395 6.387zm11.931-6.694c-.1-.1-.206-.209-.314-.311-.23-.218-.468-.427-.71-.633-.078-.066-.153-.136-.233-.2-.318-.26-.645-.5-.98-.741-.106-.073-.215-.142-.322-.213a15.248 15.248 0 0 0-.52-.329 20.215 20.215 0 0 0-.833.538c-.341.237-.672.485-.995.748-.071.059-.136.12-.2.179-.251.212-.5.429-.738.656-.1.1-.2.2-.306.3s-.206.215-.308.323l.031.04c.149.184.293.372.437.562l.09.119a18.544 18.544 0 0 1 1.839 3.088l.041.092q.161.344.308.7l.078.193c.079.2.157.4.229.6.035.093.067.189.1.284q.086.252.167.508c.02.066.045.132.065.2.016-.053.036-.1.051-.158q.092-.29.191-.579l.08-.228c.079-.221.163-.437.25-.652l.059-.147c.1-.247.212-.491.325-.734l.027-.062a18.648 18.648 0 0 1 1.839-3.089c.04-.052.082-.1.122-.158.133-.177.267-.352.405-.524.013-.014.023-.028.034-.042a6.645 6.645 0 0 0-.309-.33zm4.429-4.901c.2.088.4.182.59.275a.433.433 0 0 0 .061.028c.233.116.465.234.691.359h.011c.225-.125.453-.243.686-.356l.07-.033c.192-.094.386-.187.582-.273a15.7 15.7 0 0 0-2.691 0zm-8.861.008q.682.3 1.338.659l.015-.01.013.009c.2-.107.393-.212.593-.313.107-.053.215-.1.322-.153.14-.066.277-.136.418-.2-.453-.038-.9-.058-1.346-.058s-.898.028-1.353.066zm13.288 4.893c-.1-.1-.207-.208-.312-.308q-.362-.344-.743-.661c-.066-.057-.13-.116-.2-.171q-.485-.4-1-.755c-.086-.061-.176-.114-.264-.173a15.022 15.022 0 0 0-.566-.359c-.179.11-.357.221-.532.338-.1.067-.207.131-.307.2-.336.237-.665.482-.985.742-.078.065-.151.133-.227.2-.243.206-.483.417-.715.637-.107.1-.212.207-.316.312s-.2.21-.3.317c.014.017.028.037.043.054.116.144.226.289.337.434.062.082.127.163.188.246a18.451 18.451 0 0 1 1.829 3.074c.014.028.025.057.04.084a18.627 18.627 0 0 1 .89 2.306c.018.06.04.119.058.178.017-.057.037-.111.054-.166a37.282 37.282 0 0 1 .273-.813q.113-.309.236-.614l.077-.187q.144-.346.3-.684l.051-.113a20.923 20.923 0 0 1 .396-.79 18.338 18.338 0 0 1 1.424-2.267c.081-.11.165-.218.248-.326s.181-.236.274-.353c.017-.022.033-.044.051-.064-.099-.106-.198-.215-.302-.318zm-16.384-.859l.022-.027.024.027A18.636 18.636 0 0 1 16.426 3.6c.168-.124.335-.251.509-.37a16.785 16.785 0 0 0-2.877-1.064 16.7 16.7 0 0 0-2.879 1.064 18.5 18.5 0 0 1 2.855 2.422z"/><path class="cls-2" d="M53.9 0a18.494 18.494 0 0 0-4.413.56h-.027a17.7 17.7 0 0 0-8.827 0H40.6a17.7 17.7 0 0 0-8.827 0h-.027a17.692 17.692 0 0 0-8.828 0h-.026A18.534 18.534 0 0 0 18.483 0a18.53 18.53 0 0 0-4.4.556V.55l-.025.006-.026-.006v.015l-.165.042-.216.057v.007a18.258 18.258 0 0 0-4.21 1.717v-.007l-.185.108h-.01l-.195.113v.009a18.423 18.423 0 0 0-4.275 3.513l-.007-.006-.149.17-.02.026-.432.486.01.012A18.452 18.452 0 0 0 0 18.485a34.185 34.185 0 0 0 4.322 16.384v.007l.2.372v.01L5.2 36.5l.014-.025a61.038 61.038 0 0 0 3.451 5.238v.006l.342.46.624.842v-.006c1 1.316 2.1 2.711 3.415 4.306l.1.122.066.082.839 1.009a231.842 231.842 0 0 0 3.384 3.9l.43.481.032.037.579.649c1.077 1.2 2.206 2.448 3.373 3.72l.483.522.019.02.552.6c1.092 1.186 2.216 2.4 3.362 3.618l.5.531c.116.121.236.25.351.372l.215.23a709.025 709.025 0 0 0 3.353 3.535l.513.535.559.587a303.443 303.443 0 0 0 3.877 3.983l.547.548.551-.548c3.22-3.215 16.069-16.637 22.433-24.332 6.687-8.114 13.217-17.041 13.217-29.037A18.506 18.506 0 0 0 53.9 0zM28.638 61.822c.045-.05.091-.1.137-.147l.668-.715.159-.171.644-.69.233-.253a77.102 77.102 0 0 0 .874-.951c.19-.2.378-.408.568-.615l.325-.353c.181-.2.36-.392.542-.591l.35-.383c.174-.189.348-.378.521-.569l.376-.411c.168-.187.337-.372.506-.558L34.93 55c.168-.185.334-.371.5-.557q.191-.211.381-.424c.17-.187.338-.375.506-.564l.366-.41c.174-.193.345-.387.516-.579l.343-.387c.178-.2.352-.4.527-.6l.312-.355.545-.625c.089-.1.181-.208.27-.312.192-.22.378-.437.563-.653l.225-.262a108.627 108.627 0 0 0 1.471-1.746 151.372 151.372 0 0 0 3.1-3.873c5.469-7.106 10.118-15.043 10.118-25.164 0-.4-.014-.8-.039-1.2 0-.066-.013-.13-.019-.2a20.192 20.192 0 0 0-.1-1.019c0-.038-.011-.075-.017-.111A18.429 18.429 0 0 0 46.6 3.229c.27-.129.542-.253.819-.368l.193-.076c.271-.108.545-.209.824-.3.062-.02.123-.043.186-.063.281-.093.568-.175.855-.253.1.027.192.053.288.081s.192.055.287.085c.128.039.254.082.38.124l.3.1c.1.034.226.085.338.127s.225.085.336.13c.095.037.188.079.283.119.126.054.252.107.376.164.075.033.147.068.221.1.143.066.285.135.426.206l.147.076c.163.085.325.171.483.26l.071.041A16.946 16.946 0 0 1 61.96 17.77c.01.236.016.475.016.714A32.964 32.964 0 0 1 57.6 34.569l-.075.142-.093.162a79.21 79.21 0 0 1-8.32 11.661c-5.2 6.287-14.391 15.987-17.35 19.088a772.264 772.264 0 0 1-3.362-3.549zm-3.738-5.53l.01-.012q.64-.7 1.246-1.373l.13-.143c.369-.408.726-.807 1.077-1.2l.2-.218c.323-.363.635-.713.942-1.06l.242-.272.839-.955c.084-.1.171-.194.254-.288l.79-.912.215-.249c.264-.308.517-.6.763-.894l.163-.191q.44-.522.842-1.006c5.852-7.1 11.583-14.823 12.923-24.68q.072-.527.127-1.063.111-1.072.148-2.18c.011-.367.019-.74.019-1.114 0-.272-.007-.543-.019-.812-.005-.121-.016-.24-.024-.358a12.554 12.554 0 0 0-.081-.91c-.013-.11-.023-.219-.038-.328-.023-.175-.051-.347-.079-.522l-.042-.263a14.27 14.27 0 0 0-.109-.554c-.015-.074-.029-.149-.046-.223a17.59 17.59 0 0 0-.137-.571l-.052-.2a14.972 14.972 0 0 0-.164-.57l-.06-.2a19.315 19.315 0 0 0-.186-.56l-.069-.2c-.066-.181-.136-.361-.206-.541-.029-.07-.056-.141-.086-.212q-.106-.258-.221-.511l-.108-.237a20.483 20.483 0 0 0-.594-1.167q-.089-.157-.181-.314c-.07-.125-.143-.246-.216-.367s-.153-.243-.23-.364c-.066-.1-.131-.205-.2-.306-.094-.142-.192-.279-.291-.418-.056-.079-.111-.16-.171-.239a23.21 23.21 0 0 0-.358-.469c-.047-.058-.091-.117-.136-.174-.02-.024-.037-.048-.057-.07.1-.1.2-.212.3-.313s.213-.215.322-.319c.228-.215.462-.421.7-.624.082-.068.16-.142.243-.209q.475-.387.976-.736c.107-.076.221-.146.331-.219.17-.113.342-.221.516-.328.092.057.185.113.276.173.157.1.313.2.466.308s.29.206.432.313.314.232.466.355c.126.1.247.2.37.3.163.137.325.274.483.418.1.091.2.184.294.277.171.164.342.329.507.5.073.075.143.152.214.23.181.193.359.39.53.592.048.057.093.115.14.172.187.227.371.456.545.692.027.034.051.07.076.106.189.261.373.523.548.793l.025.042a17.151 17.151 0 0 1 2.133 4.855v.017q.136.508.237 1.025c.01.05.017.1.027.151.057.3.109.6.15.908.017.133.025.267.039.4.025.228.052.454.068.683q.036.546.037 1.1c0 11.483-6.355 20.152-12.863 28.049-.227.276-.463.558-.7.845l-.222.261c-.171.2-.343.406-.521.615l-.3.352-.475.551-.352.4-.451.517c-.131.15-.267.3-.4.455s-.284.323-.429.487l-.422.476-.43.482-.414.464-.463.517-.391.436-.49.542-.379.417-.518.572-.333.365-.582.636c-.087.1-.174.19-.261.285l-.65.71-.2.214-.723.786-.1.108a731.808 731.808 0 0 1-2.706 2.907 478.34 478.34 0 0 1-3.373-3.628zm-1.986-.129a504.89 504.89 0 0 1-3.387-3.736c.2-.226.4-.451.593-.671l.037-.042.534-.607c.028-.032.057-.063.084-.1l.47-.54c.045-.052.091-.1.134-.154l.406-.467c.06-.072.121-.143.182-.212.114-.135.23-.269.342-.4l.222-.262c.095-.11.189-.222.28-.329s.2-.234.295-.352l.186-.219.462-.556c6.646-8.065 13.133-16.934 13.214-28.812v-.225c0-.246.006-.49.017-.734 0-.11.014-.221.021-.331.008-.131.016-.262.027-.392s.03-.286.045-.429l.032-.283c.021-.163.047-.327.074-.49.011-.068.021-.14.034-.21a25.025 25.025 0 0 1 .133-.689c.041-.19.084-.379.133-.567l.029-.113q.077-.3.164-.589l.025-.082a13.864 13.864 0 0 1 .22-.661c.073-.207.149-.412.23-.618 0-.01.009-.02.013-.031.083-.211.171-.418.263-.627v-.006a16.983 16.983 0 0 1 1.578-2.794c.066-.1.131-.192.2-.285l.191-.253c.062-.083.146-.193.22-.287.052.063.1.13.151.2.09.118.182.237.27.357.034.046.065.095.1.141a16.86 16.86 0 0 1 1.668 2.926v.006c.09.206.178.415.261.624 0 .012.01.022.014.035.081.2.155.407.228.612.007.021.016.042.022.062.068.2.133.4.195.6.009.03.019.06.027.091a16.077 16.077 0 0 1 .361 1.427c.037.175.071.351.1.525.013.073.023.144.034.218.027.161.051.322.072.484.013.095.023.19.034.287.016.141.032.282.045.426s.019.262.027.394c.007.109.016.219.022.329.01.244.017.488.017.734 0 .358-.007.715-.018 1.067-.343 9.9-5.4 17.686-11.022 24.738q-.9 1.134-1.822 2.243c-.259.313-.533.642-.819.98l-.37.435c-.18.209-.354.417-.544.636-.1.124-.219.254-.328.38l-.678.783-.27.308c-.266.3-.534.608-.815.925l-.277.313c-.281.316-.566.639-.863.97-.133.15-.27.3-.405.452l-.77.855c-.234.262-.476.527-.719.795l-.449.5c-.385.422-.779.854-1.186 1.297zm-4.427-4.9c-1.3-1.47-2.449-2.794-3.416-3.945 5.987-7.29 11.82-15.246 12.873-25.518v-.02c.034-.327.061-.658.084-.99 0-.029.006-.061.007-.092.021-.309.035-.621.048-.935 0-.054.006-.107.009-.163.01-.293.013-.59.014-.888v-.225c0-.246.006-.49.017-.734 0-.109.014-.217.021-.324.009-.134.016-.268.027-.4s.03-.279.045-.419c.011-.1.019-.2.032-.293.021-.159.047-.318.072-.48.013-.074.023-.147.035-.221a24.056 24.056 0 0 1 .135-.694 23.232 23.232 0 0 1 .164-.683c.051-.192.1-.381.161-.57.01-.034.02-.069.031-.1a12.531 12.531 0 0 1 .218-.662c.07-.2.144-.4.222-.6l.023-.058q.121-.3.253-.6c.005-.014.011-.025.017-.038.092-.2.186-.408.287-.608a16.806 16.806 0 0 1 1.3-2.189c.058-.083.114-.168.175-.251s.146-.192.217-.289.13-.171.2-.254c.057.072.113.147.17.221.083.108.166.218.247.327.045.063.086.125.13.186a17 17 0 0 1 1.639 2.879l.005.015q.138.3.26.618c.005.015.011.027.017.041.079.2.154.4.226.606.007.023.016.045.022.067.069.2.133.4.194.594l.03.094c.056.191.111.386.161.578.011.042.021.085.033.126q.07.277.131.557l.034.165c.037.175.071.351.1.525.013.073.023.144.035.218.025.161.051.322.072.485.013.094.021.189.033.286.016.141.033.282.045.425s.018.264.027.4c.007.107.017.218.021.327.011.244.017.488.017.734 0 11.481-6.354 20.152-12.863 28.049q-.212.258-.439.529l-.275.326c-.062.074-.123.145-.185.221l-.357.42-.12.141-.436.51-.046.053q-1.007 1.167-2.203 2.518zM6.268 34.522c.085-.162.17-.324.251-.487.092-.182.181-.363.269-.544.08-.163.16-.324.236-.488.086-.181.169-.363.251-.545.074-.161.147-.322.218-.483.081-.184.158-.37.236-.554l.2-.474c.076-.187.148-.375.22-.564l.178-.465c.07-.19.137-.383.2-.574.052-.15.107-.3.157-.452.066-.2.127-.393.189-.589.046-.148.095-.294.138-.441.061-.2.118-.4.174-.6.039-.142.082-.287.12-.428.054-.206.1-.413.155-.617.034-.139.069-.278.1-.417.049-.209.093-.418.137-.627.03-.138.061-.273.088-.41.042-.212.079-.427.117-.64.024-.132.049-.264.07-.4.037-.22.068-.438.1-.658.018-.128.039-.256.057-.385.029-.223.052-.447.078-.672l.042-.373c.023-.232.04-.464.057-.693.01-.12.021-.239.028-.357.017-.249.027-.5.037-.749 0-.1.011-.2.016-.306.008-.276.011-.554.013-.83v-.226c0-.246.005-.49.017-.735.005-.109.014-.219.021-.329.008-.131.016-.261.027-.393s.031-.289.046-.434c.012-.093.02-.184.033-.276.021-.166.048-.331.075-.5.01-.066.02-.135.033-.2.031-.181.066-.363.1-.542.01-.05.019-.1.03-.147q.063-.287.135-.576l.027-.1c.052-.2.109-.4.168-.6l.021-.066c.064-.209.13-.415.2-.621l.013-.034c.075-.215.152-.427.236-.636v-.008a17.044 17.044 0 0 1 1.892-3.5l.152-.22c.071-.1.144-.189.216-.286s.13-.172.2-.257c.068.085.134.173.2.26s.145.188.216.284c.052.073.1.148.154.222a16.918 16.918 0 0 1 1.617 2.851l.006.012c.09.2.178.412.261.62l.014.038c.081.2.155.405.228.61.007.021.016.042.022.063.069.2.133.4.195.6.009.03.019.06.027.091.058.192.112.387.163.581l.032.122c.047.187.091.372.132.559l.034.165c.037.175.071.351.1.526.013.072.023.144.034.215.027.163.052.324.073.487l.033.286c.015.141.032.282.045.425s.018.264.027.4c.007.107.017.217.021.325 0 .076 0 .151.006.227 0 .169.011.339.011.51 0 .558-.017 1.107-.046 1.649 0 .043 0 .086-.006.129-.028.491-.072.973-.122 1.452-.011.1-.02.2-.032.3-.048.416-.107.823-.171 1.23-.028.175-.054.35-.085.522-.058.33-.123.655-.189.979-.085.4-.177.8-.275 1.2-.023.092-.044.184-.068.274a39.676 39.676 0 0 1-5.388 11.716l-.018.025c-.154.237-.31.469-.465.7-.123.181-.245.361-.367.538l-.243.351a66.384 66.384 0 0 1-.602.846 56.968 56.968 0 0 1-3.544-5.525c.077-.123.134-.24.196-.357zM34.845 1.61a15.7 15.7 0 0 1 2.692 0c-.2.087-.39.18-.582.273l-.071.033c-.233.113-.463.231-.689.356h-.006a15.297 15.297 0 0 0-.685-.356l-.073-.033c-.197-.093-.39-.183-.586-.273zm8.854 0a15.711 15.711 0 0 1 2.693 0c-.192.085-.381.176-.57.268l-.088.041c-.231.114-.459.231-.682.355h-.013a15.86 15.86 0 0 0-.685-.356l-.076-.035c-.193-.094-.385-.183-.578-.273zM20.853 2.862l.2-.079c.272-.108.548-.211.826-.306l.177-.061c.281-.092.568-.174.854-.251.284.076.566.158.845.248l.21.072c.267.092.53.188.791.293l.216.084c.274.113.544.237.811.365l-.06.042c-.052.037-.1.076-.154.111q-.481.341-.942.711c-.072.06-.145.115-.216.175a18.3 18.3 0 0 0-.966.86l-.192.188c-.11.109-.222.215-.329.325l-.014-.016-.014.016c-.1-.1-.207-.2-.311-.3a7.607 7.607 0 0 0-.222-.218q-.461-.441-.951-.848l-.226-.183a17.983 17.983 0 0 0-1.148-.855c.269-.135.54-.258.815-.373zm9.05-.078c.271-.107.543-.209.82-.3l.189-.066c.28-.092.565-.174.85-.25.286.076.569.158.849.248l.2.071c.27.09.537.189.8.294l.216.084q.411.173.81.365l-.054.039c-.057.04-.109.079-.164.119-.319.225-.63.46-.934.7-.072.06-.147.116-.219.177q-.5.413-.965.86c-.066.062-.13.127-.195.191-.109.107-.222.212-.328.322l-.016-.017-.014.017c-.106-.11-.219-.215-.328-.322a8.555 8.555 0 0 0-.192-.189q-.47-.448-.97-.864c-.068-.057-.139-.111-.208-.166q-.468-.378-.956-.724c-.048-.032-.095-.067-.143-.1-.021-.015-.041-.031-.062-.045.27-.129.541-.252.818-.368zm8.859 0c.266-.1.534-.2.807-.3l.2-.071c.28-.09.562-.172.846-.248.287.076.572.158.853.251l.187.063q.417.142.825.306c.063.023.127.049.189.074.276.115.549.239.819.368-.02.014-.038.029-.059.042-.052.037-.1.076-.157.114-.319.225-.631.462-.936.708-.075.06-.15.115-.222.177q-.494.41-.959.854a7.543 7.543 0 0 0-.2.2c-.107.1-.218.209-.324.316l-.014-.017-.014.017c-.031-.032-.065-.062-.1-.1a23.706 23.706 0 0 0-.479-.471c-.068-.064-.137-.129-.206-.19-.15-.139-.3-.275-.458-.408l-.2-.174a17.666 17.666 0 0 0-.568-.455c-.037-.028-.072-.058-.109-.085q-.346-.262-.7-.508c-.013-.008-.024-.018-.037-.025.27-.128.541-.252.816-.366.065-.021.138-.046.201-.075zm.431 4.543l-.185.237a18.631 18.631 0 0 0-1.831 3.077l-.038.087c-.109.232-.212.467-.311.7l-.075.184c-.081.2-.158.4-.232.6-.036.093-.068.188-.1.282-.058.17-.114.339-.166.51-.021.066-.045.13-.065.2-.014-.048-.033-.1-.047-.143-.062-.2-.127-.4-.2-.6-.025-.075-.052-.148-.079-.222a17.224 17.224 0 0 0-.312-.807c-.1-.239-.205-.477-.313-.712-.013-.028-.025-.057-.04-.085a17.053 17.053 0 0 0-.394-.789 18.514 18.514 0 0 0-1.438-2.289c-.052-.073-.11-.143-.164-.215-.119-.155-.237-.312-.362-.466-.013-.017-.025-.034-.04-.051.107-.111.21-.226.319-.335s.194-.193.293-.286c.245-.232.5-.457.756-.674.063-.053.124-.11.188-.163q.489-.4 1.005-.76c.078-.054.16-.1.239-.156.191-.129.389-.25.585-.372.188.116.375.23.557.354.09.061.184.118.274.181q.51.357 1 .751c.071.059.137.122.206.18.253.213.5.431.737.657.1.1.2.194.3.294s.21.22.315.33l-.043.057a12.67 12.67 0 0 0-.338.441zm-8.8-.077c-.083.108-.168.216-.248.326a18.338 18.338 0 0 0-1.419 2.264 23.779 23.779 0 0 0-.447.903q-.157.338-.3.684l-.077.187q-.122.3-.236.614l-.089.256c-.065.184-.125.37-.184.557-.017.055-.037.109-.054.166-.019-.059-.04-.118-.058-.178a17.345 17.345 0 0 0-.179-.545l-.09-.255a19.634 19.634 0 0 0-.621-1.506c-.014-.027-.025-.056-.04-.084a18.451 18.451 0 0 0-1.831-3.075c-.061-.083-.126-.164-.188-.246-.112-.146-.222-.29-.337-.434-.014-.017-.028-.037-.043-.054.1-.107.2-.215.3-.317s.209-.211.316-.312c.231-.22.472-.431.715-.637.076-.065.149-.133.227-.2.319-.26.648-.5.985-.742.1-.071.2-.135.307-.2.175-.117.353-.228.532-.338.191.117.381.234.566.359.088.059.178.112.264.173q.513.359 1 .755c.066.055.13.114.2.171q.381.318.743.661c.106.1.209.2.312.308l.3.318c-.018.02-.034.043-.051.064-.089.118-.178.237-.268.354zm-8.97.149c-.039.054-.082.106-.122.158a18.648 18.648 0 0 0-1.839 3.089l-.027.063c-.113.243-.222.487-.325.734l-.059.147a18.26 18.26 0 0 0-.25.652l-.08.228q-.1.289-.191.579c-.015.054-.035.105-.051.158-.02-.066-.045-.132-.065-.2q-.081-.256-.167-.508c-.034-.095-.066-.191-.1-.284a21.023 21.023 0 0 0-.307-.793q-.146-.352-.308-.7l-.041-.092a18.544 18.544 0 0 0-1.839-3.086l-.09-.119a19.656 19.656 0 0 0-.437-.562L15.1 6.83c.1-.108.2-.219.308-.323s.2-.2.306-.3c.239-.228.486-.444.738-.656.069-.059.134-.12.2-.179.322-.263.654-.511.995-.748.093-.066.19-.127.287-.191.179-.119.363-.233.546-.347.175.107.351.216.52.329.107.071.216.14.322.213.334.236.662.481.98.741.081.065.156.136.233.2.243.206.48.415.71.633.107.1.21.206.314.311s.2.212.305.319c-.011.014-.021.028-.034.042-.13.171-.269.346-.402.526zM28.1 1.884l-.07.033a13.46 13.46 0 0 0-.686.356h-.011a18.027 18.027 0 0 0-.691-.359.433.433 0 0 1-.061-.028 19.816 19.816 0 0 0-.59-.275 15.7 15.7 0 0 1 2.692 0c-.196.089-.39.179-.583.273zm-8.69-.074c-.107.051-.215.1-.322.153-.2.1-.4.206-.593.313l-.013-.009-.015.01q-.655-.356-1.338-.659c.455-.038.907-.065 1.353-.065s.893.02 1.346.058c-.14.063-.277.132-.417.199zm-5.353.356a16.785 16.785 0 0 1 2.878 1.064c-.174.119-.34.246-.509.37a18.636 18.636 0 0 0-2.346 2.052l-.024-.027-.022.027a18.5 18.5 0 0 0-2.855-2.422 16.7 16.7 0 0 1 2.879-1.064zm-1.04 4.664c-.047.059-.095.116-.141.175s-.1.135-.154.2q-.214.277-.418.561l-.151.216q-.2.294-.4.595l-.12.19q-.215.346-.411.7c-.021.037-.043.073-.062.11a18.156 18.156 0 0 0-.845 1.73c-.02.047-.037.093-.056.14a13.326 13.326 0 0 0-.377.997c-.066.191-.13.383-.189.575-.02.064-.044.126-.062.19a18.694 18.694 0 0 0-3.395-6.391 16.92 16.92 0 0 1 3.392-2.735 16.908 16.908 0 0 1 3.389 2.747zM8.853 18.476v.01c0 .327-.005.653-.015.981 0 .1-.01.2-.014.295-.01.229-.02.457-.034.685-.007.115-.017.227-.025.341-.016.213-.032.427-.052.639-.011.115-.025.234-.038.35-.023.211-.045.422-.072.631-.016.115-.033.229-.048.345-.03.211-.061.423-.1.634-.017.111-.037.225-.056.338-.037.215-.076.428-.119.641-.021.11-.042.22-.065.328q-.068.327-.142.655c-.024.1-.048.208-.074.313-.054.225-.11.447-.169.671-.027.1-.051.2-.078.295-.063.233-.133.468-.2.7a8.234 8.234 0 0 1-.079.268c-.076.252-.16.5-.244.758l-.066.206c-.11.321-.225.642-.345.964q-.182.488-.381.975c-.031.076-.066.154-.1.232-.1.24-.2.481-.307.721l-.172.376c-.087.191-.173.384-.265.576-.066.141-.137.282-.206.425l-.187.38a32.236 32.236 0 0 1-3.648-14.724A16.9 16.9 0 0 1 5.2 8.013a16.881 16.881 0 0 1 3.653 10.463zm2.388 22.338l.162-.23c.042-.061.085-.12.127-.183 3.766-5.379 7.663-12.533 7.725-21.7v-.221c0-.245.005-.491.017-.734 0-.11.014-.218.02-.327.01-.132.017-.265.028-.4s.028-.283.045-.424c.01-.1.02-.192.033-.288.021-.161.046-.321.072-.48a11.448 11.448 0 0 1 .136-.744l.035-.173c.041-.184.084-.365.13-.548l.034-.134c.051-.191.1-.38.16-.568l.032-.105q.089-.293.189-.581l.03-.086c.069-.2.141-.391.219-.585l.028-.071c.079-.2.16-.394.246-.587a.581.581 0 0 0 .028-.061 16.556 16.556 0 0 1 .298-.629 17.018 17.018 0 0 1 1.2-2.032c.089-.129.175-.257.267-.383.051-.069.1-.137.155-.205.082-.108.165-.219.25-.326.058.073.114.149.171.224.082.107.166.215.246.323.051.069.1.142.147.21a17.036 17.036 0 0 1 1.319 2.213l.01.021c.1.2.191.4.281.6a.453.453 0 0 0 .022.05q.13.294.249.592l.027.067a21.401 21.401 0 0 1 .249.674 14.988 14.988 0 0 1 .38 1.253 12.628 12.628 0 0 1 .2.861c.036.171.069.344.1.516.013.076.024.151.035.228.025.158.051.316.072.476a9 9 0 0 1 .032.293 11.908 11.908 0 0 1 .073.819c.005.107.016.215.02.324.011.244.017.488.017.734q0 .536-.018 1.066v.079c-.379 10.2-5.774 18.174-11.617 25.4l-.017.022q-.278.346-.558.686c-.027.034-.052.065-.078.1l-.213.26a115.428 115.428 0 0 1-3.456-4.39c.209-.292.425-.592.641-.896zm27.024 20.18l.011-.013.566-.607c.01-.011.02-.023.03-.032l.59-.636.007-.009.606-.652.01-.012q.294-.316.592-.64l.046-.051c.195-.21.39-.424.586-.637l.041-.045c.2-.215.4-.433.6-.65a.925.925 0 0 0 .042-.045l.574-.629c.031-.032.061-.066.09-.1l.545-.6.106-.117.525-.579.133-.147.5-.555.152-.171q.24-.264.475-.528c.06-.069.123-.138.184-.205l.439-.491c.07-.081.141-.16.212-.24.135-.151.271-.3.405-.457l.246-.277q.18-.207.36-.408l.3-.337.3-.343.325-.376.266-.3.345-.4.228-.266c.137-.158.268-.314.4-.469.051-.06.1-.12.154-.18l.456-.542a2.77 2.77 0 0 0 .084-.1c.176-.212.352-.42.519-.625C57 39.406 63.529 30.478 63.529 18.485c0-.243-.006-.484-.016-.725 0-.122-.013-.243-.02-.362s-.013-.223-.021-.332c-.014-.173-.031-.343-.048-.516l-.016-.135a18.465 18.465 0 0 0-9.619-14.2c-.036-.017-.072-.038-.109-.058-.16-.083-.321-.167-.483-.247a10.412 10.412 0 0 0-.281-.132c-.115-.055-.23-.111-.348-.163l-.016-.008c.454-.038.9-.058 1.345-.058a16.952 16.952 0 0 1 16.934 16.936c0 11.482-6.355 20.152-12.863 28.049C52.086 53.642 40.335 66 36.191 70.2a392.396 392.396 0 0 1-3.353-3.457 730.803 730.803 0 0 0 5.427-5.749z"/><path d="M178.59 17.235a19.476 19.476 0 0 0-15.039 6.591 20.4 20.4 0 0 0-5.4 14.1 20.443 20.443 0 0 0 5.709 14.331 20.691 20.691 0 0 0 29.43 0A20.441 20.441 0 0 0 199 37.931a20.448 20.448 0 0 0-5.406-14.141 19.469 19.469 0 0 0-15.004-6.555zm-.018 5.618a13.978 13.978 0 0 1 10.3 4.436 14.892 14.892 0 0 1 4.334 10.744 15.329 15.329 0 0 1-1.971 7.576 14.017 14.017 0 0 1-5.31 5.413 15.127 15.127 0 0 1-14.706 0 14 14 0 0 1-5.309-5.412 15.324 15.324 0 0 1-1.97-7.577 14.92 14.92 0 0 1 4.318-10.745 13.948 13.948 0 0 1 10.315-4.434zm40.919 22.824l-12.644-27.45h-6.12l18.764 40.738 18.641-40.738h-6.156l-12.485 27.45zm27.264-41.415a4.274 4.274 0 0 0-3.125 1.315 4.344 4.344 0 0 0-1.307 3.17 4.314 4.314 0 0 0 1.307 3.136 4.409 4.409 0 0 0 6.285 0 4.3 4.3 0 0 0 1.307-3.136 4.337 4.337 0 0 0-1.307-3.172 4.319 4.319 0 0 0-3.16-1.313zm-2.844 13.965h5.727v39.191h-5.727zM370.077 5.898h5.723v39.193h-5.723zm6.006 45.538a4.455 4.455 0 0 0-7.6 3.135 4.48 4.48 0 0 0 4.471 4.484 4.3 4.3 0 0 0 3.131-1.316 4.368 4.368 0 0 0 1.3-3.168 4.308 4.308 0 0 0-1.302-3.135zm-77.115-14.002a20.992 20.992 0 0 0-4.3-12.6 19.413 19.413 0 0 0-16-7.6 18.8 18.8 0 0 0-15.537 7.422 21.016 21.016 0 0 0-4.572 13.273 21.255 21.255 0 0 0 5.394 14.179c3.6 4.18 8.643 6.3 15 6.3a21.56 21.56 0 0 0 7.738-1.315 19.279 19.279 0 0 0 6.168-3.838 22.666 22.666 0 0 0 4.469-5.936l.543-1-4.84-2.543-.555.889a21.547 21.547 0 0 1-3.773 4.777 14.756 14.756 0 0 1-4.6 2.639 16.159 16.159 0 0 1-5.576 1 13.331 13.331 0 0 1-9.932-4.158 15.221 15.221 0 0 1-4.162-10.323h34.576zm-6.318-3.887h-27.6a15.712 15.712 0 0 1 4.225-7.264 13.781 13.781 0 0 1 9.463-3.533 15 15 0 0 1 6.375 1.408 13.35 13.35 0 0 1 4.861 3.7 15.574 15.574 0 0 1 2.675 5.689zm51.201 11.984L331.067 16.63l-12.691 28.89-11.525-27.293h-5.934l17.441 40.828 12.754-28.571 12.754 28.556 17.729-40.813h-5.993l-11.751 27.304zm-229.38-21.019a19.461 19.461 0 0 0-6.154-5.218 18.6 18.6 0 0 0-8.742-2.059 19.454 19.454 0 0 0-14.3 6.013 19.922 19.922 0 0 0-5.937 14.467 20.3 20.3 0 0 0 5.881 14.661 19.871 19.871 0 0 0 22.834 4.086 21.1 21.1 0 0 0 6.414-4.98v5.937h5.652V18.227h-5.652zm-3.962 2.635a14.973 14.973 0 0 1 4.28 10.87 15.487 15.487 0 0 1-1.909 7.674 13.991 13.991 0 0 1-5.439 5.387 15.123 15.123 0 0 1-7.5 2 14.276 14.276 0 0 1-7.333-2.012 14.841 14.841 0 0 1-5.444-5.618 15.182 15.182 0 0 1-.018-15.137 14.52 14.52 0 0 1 12.83-7.522 14.23 14.23 0 0 1 10.532 4.358zm28.914-4.504c2.246 0 4.59 1.1 6.968 3.257l.809.734 3.719-3.841-.854-.783c-3.458-3.168-6.954-4.774-10.393-4.774a10.683 10.683 0 0 0-7.821 3.006 9.99 9.99 0 0 0-3.106 7.554 10.4 10.4 0 0 0 1.949 6.193c1.276 1.781 3.7 3.6 7.219 5.419 3.171 1.616 5.224 2.961 6.1 3.989a5.39 5.39 0 0 1 1.3 3.534 5.465 5.465 0 0 1-1.962 4.2 6.9 6.9 0 0 1-4.8 1.8c-2.5 0-4.925-1.2-7.2-3.564l-.85-.882-3.611 4.1.639.744a14.327 14.327 0 0 0 4.726 3.589 15 15 0 0 0 6.514 1.484 11.617 11.617 0 0 0 8.583-3.4 11.107 11.107 0 0 0 3.441-8.293 10.475 10.475 0 0 0-2.03-6.281c-1.347-1.8-3.913-3.687-7.628-5.611-2.957-1.521-4.915-2.855-5.828-3.971a5.127 5.127 0 0 1-1.32-3.308 4.486 4.486 0 0 1 1.594-3.419 5.5 5.5 0 0 1 3.842-1.476z"/></g></g></svg>