<svg xmlns="http://www.w3.org/2000/svg" viewBox="0 0 159.85 241.27"><defs><style>.cls-1{fill:none}.cls-2{fill:#fff}.cls-3{fill:#f3f8fb}.cls-4{fill:url(#Unnamed_Pattern_3)}</style><pattern id="Unnamed_Pattern_3" data-name="Unnamed Pattern 3" width="20" height="200" patternTransform="rotate(135 117.21 52.228) scale(.32)" patternUnits="userSpaceOnUse" viewBox="0 0 20 200"><path class="cls-1" d="M0 0h20v200H0z"/><path class="cls-2" d="M0 0h10v200H0z"/><path class="cls-3" d="M10 0h10v200H10z"/></pattern></defs><title>アセット 5</title><g id="レイヤー_2" data-name="レイヤー 2"><g id="Alphabet-BG"><path class="cls-2" d="M0 195.08l40.21-32.9c10.3 16.28 27.25 29.24 43.54 29.24 15.62 0 22.6-6 22.6-16.95 0-10.63-8.64-15.29-27.58-26.25l-32.9-19.27h97c11.63 13 16.95 25.92 16.95 42.21 0 42.54-31.24 70.12-75.11 70.12-37.85-.01-68.43-15.63-84.71-46.2z"/><path class="cls-4" d="M28.91 112.33C15.29 97 10.3 84.41 10.3 68.13 10.3 26.92 44.53 0 82.08 0c26.25 0 46.19 6.31 66.13 29.58l-35.88 37.88c-12-14.62-19.27-17.61-30.24-17.61-9 0-18.28 5.65-18.28 16.28 0 12.3 11.3 16 31.9 28.25L126 112.33z"/></g></g></svg>