<svg xmlns="http://www.w3.org/2000/svg" viewBox="0 0 287 240.6"><defs><style>.cls-1{fill:none}.cls-2{fill:#fff}.cls-3{fill:#f3f8fb}.cls-4{fill:url(#Unnamed_Pattern_3)}.cls-5{fill:url(#Unnamed_Pattern_3-5)}</style><pattern id="Unnamed_Pattern_3" data-name="Unnamed Pattern 3" width="20" height="200" patternTransform="rotate(-45 531.177 95.91) scale(.3)" patternUnits="userSpaceOnUse" viewBox="0 0 20 200"><path class="cls-1" d="M0 0h20v200H0z"/><path class="cls-2" d="M0 0h10v200H0z"/><path class="cls-3" d="M10 0h10v200H10z"/></pattern><pattern id="Unnamed_Pattern_3-5" data-name="Unnamed Pattern 3" width="20" height="200" patternTransform="rotate(-45 526.583 99.762) scale(.3)" patternUnits="userSpaceOnUse" viewBox="0 0 20 200"><path class="cls-1" d="M0 0h20v200H0z"/><path class="cls-2" d="M0 0h10v200H0z"/><path class="cls-3" d="M10 0h10v200H10z"/></pattern></defs><title>アセット 33</title><g id="レイヤー_2" data-name="レイヤー 2"><g id="Alphabet-BG"><path class="cls-4" d="M37.45 112.02L0 2.65h54.02l36.12 109.37H37.45z"/><path class="cls-2" d="M43.08 128.59h89.48L81.53 240.6 43.08 128.59z"/><path class="cls-4" d="M96.11 112.02L143.5 0l47.39 112.02H96.11z"/><path class="cls-5" d="M232.98 2.65H287L205.47 240.6l-51.03-112.01h36.78L232.98 2.65z"/></g></g></svg>